<?xml version="1.0" encoding="iso-8859-1"?>
<!-- Generator: Adobe Illustrator 30.3.0, SVG Export Plug-In . SVG Version: 9.03 Build 0)  -->
<svg version="1.1"
	 xmlns="http://www.w3.org/2000/svg" xmlns:xlink="http://www.w3.org/1999/xlink" xmlns:a="http://ns.adobe.com/AdobeSVGViewerExtensions/3.0/"
	 x="0px" y="0px" viewBox="0 0 1000 1000" style="enable-background:new 0 0 1000 1000;" xml:space="preserve">

<g id="brandmark">
	
	
	
	
</g>

<g id="wordmark">
	
	
	
	
	<g id="ily-wordmark-dark-square">
		
			<path style="fill:#2A2220;stroke:#2A2220;stroke-width:4.09;stroke-linecap:round;stroke-linejoin:round;stroke-miterlimit:10;" d="
			M102.382,424.602c0-4.214,3.481-7.879,7.695-7.879c4.032,0,7.696,3.664,7.696,7.879c0,4.031-3.664,7.512-7.696,7.512
			C105.864,432.114,102.382,428.633,102.382,424.602z M105.864,459.049h8.428v87.948h-8.428V459.049z"/>
		
			<path style="fill:#2A2220;stroke:#2A2220;stroke-width:4.09;stroke-linecap:round;stroke-linejoin:round;stroke-miterlimit:10;" d="
			M142.871,546.997V414.709h8.429v132.288H142.871z"/>
		
			<path style="fill:#2A2220;stroke:#2A2220;stroke-width:4.09;stroke-linecap:round;stroke-linejoin:round;stroke-miterlimit:10;" d="
			M216.89,456.85c25.103,0,43.608,19.606,43.608,46.173c0,26.568-18.505,46.174-43.608,46.174
			c-25.102,0-43.607-19.606-43.607-46.174C173.283,476.456,191.788,456.85,216.89,456.85z M216.89,541.5
			c20.522,0,34.997-15.941,34.997-38.478c0-22.536-14.475-38.477-34.997-38.477c-20.521,0-34.995,15.941-34.995,38.477
			C181.894,525.56,196.369,541.5,216.89,541.5z"/>
		
			<path style="fill:#2A2220;stroke:#2A2220;stroke-width:4.09;stroke-linecap:round;stroke-linejoin:round;stroke-miterlimit:10;" d="
			M265.989,459.049h8.978l26.201,63.946c1.831,4.58,3.664,9.161,5.679,15.391c1.833-6.23,3.665-10.444,5.681-15.391l26.201-63.946
			h8.794l-36.462,87.948h-8.612L265.989,459.049z"/>
		
			<path style="fill:#2A2220;stroke:#2A2220;stroke-width:4.09;stroke-linecap:round;stroke-linejoin:round;stroke-miterlimit:10;" d="
			M353.015,503.206c0-27.483,16.673-46.357,41.225-46.357c22.904,0,38.661,16.491,38.661,40.493v5.863h-71.458
			c0.733,24.002,13.193,38.294,33.897,38.294c15.574,0,25.468-6.779,28.95-19.789h8.612c-5.13,18.14-17.772,27.485-37.561,27.485
			C369.872,549.196,353.015,530.874,353.015,503.206z M361.627,496.243h62.663c0-19.056-11.909-31.698-30.049-31.698
			C376.284,464.545,363.642,477.005,361.627,496.243z"/>
		
			<path style="fill:#2A2220;stroke:#2A2220;stroke-width:4.09;stroke-linecap:round;stroke-linejoin:round;stroke-miterlimit:10;" d="
			M442.786,577.413h8.245c7.147,0,15.941,0,20.522-12.459l4.397-11.91l-35.729-93.994h8.794l30.965,82.452l29.683-82.452h8.612
			l-39.026,108.286c-4.581,12.642-12.643,17.956-24.552,17.956c-4.764,0-8.245-0.367-11.91-1.1V577.413z"/>
		
			<path style="fill:#2A2220;stroke:#2A2220;stroke-width:4.09;stroke-linecap:round;stroke-linejoin:round;stroke-miterlimit:10;" d="
			M568.289,456.85c25.103,0,43.608,19.606,43.608,46.173c0,26.568-18.505,46.174-43.608,46.174
			c-25.102,0-43.607-19.606-43.607-46.174C524.682,476.456,543.188,456.85,568.289,456.85z M568.289,541.5
			c20.522,0,34.997-15.941,34.997-38.478c0-22.536-14.475-38.477-34.997-38.477c-20.521,0-34.995,15.941-34.995,38.477
			C533.294,525.56,547.769,541.5,568.289,541.5z"/>
		
			<path style="fill:#2A2220;stroke:#2A2220;stroke-width:4.09;stroke-linecap:round;stroke-linejoin:round;stroke-miterlimit:10;" d="
			M702.038,459.049v87.948h-6.78l-1.649-16.307c-4.764,10.993-17.223,18.507-31.882,18.507c-21.071,0-31.881-14.475-31.881-35.912
			v-54.418h8.612v52.219c0,22.537,10.627,30.416,25.286,30.416c18.505,0,29.865-12.826,29.865-35.546v-46.906H702.038z"/>
		
			<path style="fill:#2A2220;stroke:#2A2220;stroke-width:4.09;stroke-linecap:round;stroke-linejoin:round;stroke-miterlimit:10;" d="
			M737.39,546.997v-80.619h-17.772v-7.329h17.772v-27.85h8.429v27.85h17.772v7.329h-17.772v80.619H737.39z"/>
		
			<path style="fill:#2A2220;stroke:#2A2220;stroke-width:4.09;stroke-linecap:round;stroke-linejoin:round;stroke-miterlimit:10;" d="
			M781.177,546.814V414.709h8.429v61.381c5.678-11.36,16.672-19.24,32.247-19.24c23.637,0,33.348,14.659,33.348,36.645v53.502
			h-8.429v-51.853c0-23.269-10.444-30.598-25.468-30.598c-21.072,0-31.698,16.124-31.698,34.63v47.639H781.177z"/>
		<path style="fill:#2A2220;" d="M878.496,537.824c0-6.232,5.196-11.427,11.428-11.427s11.425,5.194,11.425,11.427
			c0,6.024-5.193,11.218-11.425,11.218S878.496,543.848,878.496,537.824z"/>
		<path style="fill:#2A2220;" d="M98.651,424.523c0-6.232,5.196-11.427,11.428-11.427c6.232,0,11.425,5.194,11.425,11.427
			c0,6.024-5.193,11.218-11.425,11.218C103.847,435.742,98.651,430.547,98.651,424.523z"/>
	</g>
	
	
	
	<g>
	</g>
	<g>
	</g>
	<g>
	</g>
	<g>
	</g>
	<g>
	</g>
	<g>
	</g>
</g>
</svg>
