<?xml version="1.0" encoding="iso-8859-1"?>
<!-- Generator: Adobe Illustrator 30.3.0, SVG Export Plug-In . SVG Version: 9.03 Build 0)  -->
<svg version="1.1"
	 xmlns="http://www.w3.org/2000/svg" xmlns:xlink="http://www.w3.org/1999/xlink" xmlns:a="http://ns.adobe.com/AdobeSVGViewerExtensions/3.0/"
	 x="0px" y="0px" viewBox="0 0 1000 1000" style="enable-background:new 0 0 1000 1000;" xml:space="preserve">

<g id="brandmark">
	
	
	
	<g id="ily-brandmark-white-square_00000106843828137511240050000005159163055175924409_">
		
			<path style="fill:#FFFFFF;stroke:#FFFFFF;stroke-width:30.5;stroke-linecap:round;stroke-linejoin:round;stroke-miterlimit:10;" d="
			M196.435,228.439c0-15.178,12.539-28.377,27.717-28.377c14.518,0,27.717,13.199,27.717,28.377
			c0,14.518-13.199,27.057-27.717,27.057C208.974,255.496,196.435,242.957,196.435,228.439z M208.974,352.506h30.357v316.766
			h-30.357V352.506z"/>
		
			<path style="fill:#FFFFFF;stroke:#FFFFFF;stroke-width:30.5;stroke-linecap:round;stroke-linejoin:round;stroke-miterlimit:10;" d="
			M355.477,669.272V192.803h30.357v476.469H355.477z"/>
		
			<path style="fill:#FFFFFF;stroke:#FFFFFF;stroke-width:30.5;stroke-linecap:round;stroke-linejoin:round;stroke-miterlimit:10;" d="
			M467.661,778.82h29.697c25.737,0,57.414,0,73.912-44.875l15.838-42.895L458.422,352.506h31.677l111.528,296.968l106.909-296.968
			h31.017L598.987,742.524c-16.498,45.535-45.535,64.673-88.431,64.673c-17.158,0-29.697-1.32-42.895-3.96V778.82z"/>
		<path style="fill:#FFFFFF;" d="M729.12,638.644c0-25.488,21.24-46.728,46.728-46.728s46.728,21.24,46.728,46.728
			c0,24.638-21.24,45.878-46.728,45.878S729.12,663.282,729.12,638.644z"/>
		<path style="fill:#FFFFFF;" d="M177.424,228.204c0-25.488,21.24-46.728,46.728-46.728s46.728,21.24,46.728,46.728
			c0,24.638-21.24,45.878-46.728,45.878S177.424,252.842,177.424,228.204z"/>
	</g>
</g>

<g id="wordmark">
	<g id="ily-wordmark-dark_x2B_blue-square">
		
			<path style="fill:#2A2220;stroke:#2A2220;stroke-width:4.09;stroke-linecap:round;stroke-linejoin:round;stroke-miterlimit:10;" d="
			M-2085.809,1266.074c0-4.214,3.481-7.879,7.695-7.879c4.032,0,7.696,3.664,7.696,7.879c0,4.031-3.664,7.512-7.696,7.512
			C-2082.327,1273.586-2085.809,1270.104-2085.809,1266.074z M-2082.327,1300.52h8.428v87.948h-8.428V1300.52z"/>
		
			<path style="fill:#2A2220;stroke:#2A2220;stroke-width:4.09;stroke-linecap:round;stroke-linejoin:round;stroke-miterlimit:10;" d="
			M-2045.32,1388.468V1256.18h8.429v132.288H-2045.32z"/>
		
			<path style="fill:#2A2220;stroke:#2A2220;stroke-width:4.09;stroke-linecap:round;stroke-linejoin:round;stroke-miterlimit:10;" d="
			M-1971.301,1298.321c25.103,0,43.608,19.606,43.608,46.173c0,26.568-18.505,46.174-43.608,46.174
			c-25.102,0-43.607-19.606-43.607-46.174C-2014.908,1317.927-1996.403,1298.321-1971.301,1298.321z M-1971.301,1382.972
			c20.522,0,34.997-15.941,34.997-38.478c0-22.536-14.475-38.477-34.997-38.477c-20.521,0-34.995,15.941-34.995,38.477
			C-2006.297,1367.031-1991.822,1382.972-1971.301,1382.972z"/>
		
			<path style="fill:#2A2220;stroke:#2A2220;stroke-width:4.09;stroke-linecap:round;stroke-linejoin:round;stroke-miterlimit:10;" d="
			M-1922.202,1300.52h8.978l26.201,63.946c1.831,4.58,3.664,9.161,5.679,15.391c1.833-6.23,3.665-10.444,5.681-15.391l26.201-63.946
			h8.794l-36.462,87.948h-8.612L-1922.202,1300.52z"/>
		
			<path style="fill:#2A2220;stroke:#2A2220;stroke-width:4.09;stroke-linecap:round;stroke-linejoin:round;stroke-miterlimit:10;" d="
			M-1835.176,1344.677c0-27.484,16.673-46.357,41.225-46.357c22.904,0,38.661,16.491,38.661,40.493v5.863h-71.458
			c0.733,24.002,13.193,38.294,33.897,38.294c15.574,0,25.468-6.779,28.95-19.789h8.612c-5.13,18.14-17.772,27.485-37.561,27.485
			C-1818.319,1390.667-1835.176,1372.345-1835.176,1344.677z M-1826.564,1337.714h62.663c0-19.056-11.909-31.698-30.049-31.698
			C-1811.907,1306.017-1824.549,1318.476-1826.564,1337.714z"/>
		
			<path style="fill:#2A2220;stroke:#2A2220;stroke-width:4.09;stroke-linecap:round;stroke-linejoin:round;stroke-miterlimit:10;" d="
			M-1745.405,1418.884h8.245c7.147,0,15.941,0,20.522-12.459l4.397-11.91l-35.729-93.994h8.794l30.965,82.452l29.683-82.452h8.612
			l-39.026,108.286c-4.581,12.642-12.643,17.956-24.552,17.956c-4.764,0-8.245-0.367-11.91-1.1V1418.884z"/>
		
			<path style="fill:#2A2220;stroke:#2A2220;stroke-width:4.09;stroke-linecap:round;stroke-linejoin:round;stroke-miterlimit:10;" d="
			M-1619.902,1298.321c25.103,0,43.608,19.606,43.608,46.173c0,26.568-18.505,46.174-43.608,46.174
			c-25.102,0-43.607-19.606-43.607-46.174C-1663.509,1317.927-1645.003,1298.321-1619.902,1298.321z M-1619.902,1382.972
			c20.522,0,34.997-15.941,34.997-38.478c0-22.536-14.475-38.477-34.997-38.477c-20.521,0-34.995,15.941-34.995,38.477
			C-1654.897,1367.031-1640.422,1382.972-1619.902,1382.972z"/>
		
			<path style="fill:#2A2220;stroke:#2A2220;stroke-width:4.09;stroke-linecap:round;stroke-linejoin:round;stroke-miterlimit:10;" d="
			M-1486.153,1300.52v87.948h-6.78l-1.649-16.307c-4.764,10.993-17.223,18.507-31.882,18.507c-21.071,0-31.88-14.475-31.88-35.912
			v-54.418h8.612v52.219c0,22.537,10.627,30.416,25.286,30.416c18.505,0,29.865-12.826,29.865-35.546v-46.906H-1486.153z"/>
		
			<path style="fill:#2A2220;stroke:#2A2220;stroke-width:4.09;stroke-linecap:round;stroke-linejoin:round;stroke-miterlimit:10;" d="
			M-1450.801,1388.468v-80.619h-17.772v-7.329h17.772v-27.85h8.429v27.85h17.772v7.329h-17.772v80.619H-1450.801z"/>
		
			<path style="fill:#2A2220;stroke:#2A2220;stroke-width:4.09;stroke-linecap:round;stroke-linejoin:round;stroke-miterlimit:10;" d="
			M-1407.014,1388.286V1256.18h8.429v61.381c5.678-11.36,16.672-19.24,32.247-19.24c23.637,0,33.348,14.659,33.348,36.646v53.502
			h-8.429v-51.853c0-23.269-10.444-30.598-25.468-30.598c-21.072,0-31.698,16.124-31.698,34.63v47.639H-1407.014z"/>
		<path style="fill:#ADE8F9;" d="M-1309.695,1379.295c0-6.232,5.196-11.427,11.428-11.427c6.232,0,11.425,5.194,11.425,11.427
			c0,6.024-5.193,11.218-11.425,11.218C-1304.5,1390.513-1309.695,1385.319-1309.695,1379.295z"/>
		<path style="fill:#ADE8F9;" d="M-2089.54,1265.995c0-6.233,5.196-11.427,11.428-11.427c6.232,0,11.425,5.194,11.425,11.427
			c0,6.024-5.193,11.218-11.425,11.218C-2084.344,1277.213-2089.54,1272.019-2089.54,1265.995z"/>
	</g>
	<g id="ily-wordmark-white_x2B_blue-square">
		
			<path style="fill:#FFFFFF;stroke:#FFFFFF;stroke-width:4.09;stroke-linecap:round;stroke-linejoin:round;stroke-miterlimit:10;" d="
			M-2086.008,1266.211c0-4.214,3.481-7.878,7.695-7.878c4.032,0,7.696,3.664,7.696,7.878c0,4.031-3.664,7.512-7.696,7.512
			C-2082.527,1273.723-2086.008,1270.242-2086.008,1266.211z M-2082.527,1300.657h8.428v87.948h-8.428V1300.657z"/>
		
			<path style="fill:#FFFFFF;stroke:#FFFFFF;stroke-width:4.09;stroke-linecap:round;stroke-linejoin:round;stroke-miterlimit:10;" d="
			M-2045.52,1388.606v-132.288h8.429v132.288H-2045.52z"/>
		
			<path style="fill:#FFFFFF;stroke:#FFFFFF;stroke-width:4.09;stroke-linecap:round;stroke-linejoin:round;stroke-miterlimit:10;" d="
			M-1971.501,1298.458c25.103,0,43.608,19.606,43.608,46.173c0,26.568-18.505,46.174-43.608,46.174
			c-25.102,0-43.607-19.606-43.607-46.174C-2015.108,1318.065-1996.602,1298.458-1971.501,1298.458z M-1971.501,1383.109
			c20.522,0,34.997-15.941,34.997-38.478c0-22.536-14.475-38.477-34.997-38.477c-20.521,0-34.995,15.941-34.995,38.477
			C-2006.496,1367.168-1992.021,1383.109-1971.501,1383.109z"/>
		
			<path style="fill:#FFFFFF;stroke:#FFFFFF;stroke-width:4.09;stroke-linecap:round;stroke-linejoin:round;stroke-miterlimit:10;" d="
			M-1922.402,1300.657h8.978l26.201,63.946c1.831,4.58,3.664,9.161,5.679,15.391c1.833-6.23,3.665-10.444,5.681-15.391
			l26.201-63.946h8.794l-36.462,87.948h-8.612L-1922.402,1300.657z"/>
		
			<path style="fill:#FFFFFF;stroke:#FFFFFF;stroke-width:4.09;stroke-linecap:round;stroke-linejoin:round;stroke-miterlimit:10;" d="
			M-1835.376,1344.815c0-27.484,16.673-46.357,41.225-46.357c22.904,0,38.661,16.491,38.661,40.493v5.863h-71.458
			c0.733,24.002,13.193,38.294,33.897,38.294c15.574,0,25.468-6.779,28.95-19.789h8.612c-5.13,18.14-17.772,27.485-37.561,27.485
			C-1818.519,1390.805-1835.376,1372.482-1835.376,1344.815z M-1826.764,1337.852h62.663c0-19.056-11.909-31.698-30.049-31.698
			C-1812.107,1306.154-1824.749,1318.614-1826.764,1337.852z"/>
		
			<path style="fill:#FFFFFF;stroke:#FFFFFF;stroke-width:4.09;stroke-linecap:round;stroke-linejoin:round;stroke-miterlimit:10;" d="
			M-1745.604,1419.022h8.245c7.147,0,15.941,0,20.522-12.46l4.397-11.91l-35.729-93.994h8.794l30.965,82.452l29.683-82.452h8.612
			l-39.026,108.286c-4.581,12.642-12.643,17.956-24.552,17.956c-4.764,0-8.245-0.366-11.91-1.1V1419.022z"/>
		
			<path style="fill:#FFFFFF;stroke:#FFFFFF;stroke-width:4.09;stroke-linecap:round;stroke-linejoin:round;stroke-miterlimit:10;" d="
			M-1620.101,1298.458c25.103,0,43.608,19.606,43.608,46.173c0,26.568-18.505,46.174-43.608,46.174
			c-25.102,0-43.607-19.606-43.607-46.174C-1663.708,1318.065-1645.203,1298.458-1620.101,1298.458z M-1620.101,1383.109
			c20.522,0,34.997-15.941,34.997-38.478c0-22.536-14.475-38.477-34.997-38.477c-20.521,0-34.995,15.941-34.995,38.477
			C-1655.097,1367.168-1640.622,1383.109-1620.101,1383.109z"/>
		
			<path style="fill:#FFFFFF;stroke:#FFFFFF;stroke-width:4.09;stroke-linecap:round;stroke-linejoin:round;stroke-miterlimit:10;" d="
			M-1486.353,1300.657v87.948h-6.78l-1.649-16.307c-4.764,10.993-17.223,18.507-31.882,18.507c-21.071,0-31.88-14.475-31.88-35.912
			v-54.418h8.612v52.219c0,22.537,10.627,30.416,25.286,30.416c18.505,0,29.865-12.826,29.865-35.546v-46.906H-1486.353z"/>
		
			<path style="fill:#FFFFFF;stroke:#FFFFFF;stroke-width:4.09;stroke-linecap:round;stroke-linejoin:round;stroke-miterlimit:10;" d="
			M-1451.001,1388.606v-80.619h-17.772v-7.329h17.772v-27.85h8.429v27.85h17.772v7.329h-17.772v80.619H-1451.001z"/>
		
			<path style="fill:#FFFFFF;stroke:#FFFFFF;stroke-width:4.09;stroke-linecap:round;stroke-linejoin:round;stroke-miterlimit:10;" d="
			M-1407.214,1388.423v-132.106h8.429v61.381c5.678-11.36,16.672-19.24,32.247-19.24c23.637,0,33.348,14.659,33.348,36.645v53.502
			h-8.429v-51.853c0-23.269-10.444-30.598-25.468-30.598c-21.072,0-31.698,16.124-31.698,34.63v47.639H-1407.214z"/>
		<path style="fill:#ADE8F9;" d="M-1309.895,1379.433c0-6.233,5.196-11.427,11.428-11.427c6.233,0,11.425,5.194,11.425,11.427
			c0,6.024-5.193,11.218-11.425,11.218C-1304.699,1390.651-1309.895,1385.457-1309.895,1379.433z"/>
		<path style="fill:#ADE8F9;" d="M-2089.74,1266.132c0-6.232,5.196-11.427,11.428-11.427s11.425,5.194,11.425,11.427
			c0,6.024-5.193,11.218-11.425,11.218S-2089.74,1272.156-2089.74,1266.132z"/>
	</g>
	<g id="ily-wordmark-dark_x2B_blue-rect">
		
			<path style="fill:#2A2220;stroke:#2A2220;stroke-width:4.09;stroke-linecap:round;stroke-linejoin:round;stroke-miterlimit:10;" d="
			M-949.809,604.74c0-4.214,3.481-7.879,7.695-7.879c4.032,0,7.696,3.664,7.696,7.879c0,4.031-3.664,7.512-7.696,7.512
			C-946.327,612.252-949.809,608.771-949.809,604.74z M-946.327,639.187h8.428v87.948h-8.428V639.187z"/>
		
			<path style="fill:#2A2220;stroke:#2A2220;stroke-width:4.09;stroke-linecap:round;stroke-linejoin:round;stroke-miterlimit:10;" d="
			M-909.32,727.135V594.846h8.429v132.288H-909.32z"/>
		
			<path style="fill:#2A2220;stroke:#2A2220;stroke-width:4.09;stroke-linecap:round;stroke-linejoin:round;stroke-miterlimit:10;" d="
			M-835.301,636.987c25.103,0,43.608,19.606,43.608,46.173c0,26.568-18.505,46.174-43.608,46.174
			c-25.102,0-43.607-19.606-43.607-46.174C-878.908,656.594-860.403,636.987-835.301,636.987z M-835.301,721.638
			c20.522,0,34.997-15.941,34.997-38.478c0-22.536-14.475-38.477-34.997-38.477c-20.521,0-34.995,15.941-34.995,38.477
			C-870.297,705.697-855.822,721.638-835.301,721.638z"/>
		
			<path style="fill:#2A2220;stroke:#2A2220;stroke-width:4.09;stroke-linecap:round;stroke-linejoin:round;stroke-miterlimit:10;" d="
			M-786.202,639.187h8.978l26.201,63.946c1.831,4.58,3.664,9.161,5.679,15.39c1.833-6.23,3.665-10.444,5.681-15.39l26.201-63.946
			h8.794l-36.462,87.948h-8.612L-786.202,639.187z"/>
		
			<path style="fill:#2A2220;stroke:#2A2220;stroke-width:4.09;stroke-linecap:round;stroke-linejoin:round;stroke-miterlimit:10;" d="
			M-699.176,683.344c0-27.483,16.673-46.357,41.225-46.357c22.904,0,38.661,16.491,38.661,40.493v5.863h-71.458
			c0.733,24.002,13.193,38.294,33.897,38.294c15.574,0,25.468-6.779,28.95-19.789h8.612c-5.13,18.14-17.772,27.485-37.561,27.485
			C-682.319,729.334-699.176,711.011-699.176,683.344z M-690.564,676.381h62.663c0-19.056-11.909-31.698-30.049-31.698
			C-675.907,644.683-688.549,657.143-690.564,676.381z"/>
		
			<path style="fill:#2A2220;stroke:#2A2220;stroke-width:4.09;stroke-linecap:round;stroke-linejoin:round;stroke-miterlimit:10;" d="
			M-609.405,757.551h8.245c7.147,0,15.941,0,20.522-12.459l4.397-11.91l-35.729-93.994h8.794l30.965,82.452l29.683-82.452h8.612
			l-39.026,108.286c-4.581,12.642-12.643,17.956-24.552,17.956c-4.764,0-8.245-0.367-11.91-1.1V757.551z"/>
		
			<path style="fill:#2A2220;stroke:#2A2220;stroke-width:4.09;stroke-linecap:round;stroke-linejoin:round;stroke-miterlimit:10;" d="
			M-483.902,636.987c25.103,0,43.608,19.606,43.608,46.173c0,26.568-18.505,46.174-43.608,46.174
			c-25.102,0-43.607-19.606-43.607-46.174C-527.509,656.594-509.003,636.987-483.902,636.987z M-483.902,721.638
			c20.522,0,34.997-15.941,34.997-38.478c0-22.536-14.475-38.477-34.997-38.477c-20.521,0-34.995,15.941-34.995,38.477
			C-518.897,705.697-504.422,721.638-483.902,721.638z"/>
		
			<path style="fill:#2A2220;stroke:#2A2220;stroke-width:4.09;stroke-linecap:round;stroke-linejoin:round;stroke-miterlimit:10;" d="
			M-350.153,639.187v87.948h-6.78l-1.649-16.307c-4.764,10.993-17.223,18.507-31.882,18.507c-21.071,0-31.881-14.475-31.881-35.912
			v-54.418h8.612v52.219c0,22.537,10.627,30.416,25.286,30.416c18.505,0,29.865-12.826,29.865-35.546v-46.906H-350.153z"/>
		
			<path style="fill:#2A2220;stroke:#2A2220;stroke-width:4.09;stroke-linecap:round;stroke-linejoin:round;stroke-miterlimit:10;" d="
			M-314.801,727.135v-80.619h-17.772v-7.329h17.772v-27.85h8.429v27.85h17.772v7.329h-17.772v80.619H-314.801z"/>
		
			<path style="fill:#2A2220;stroke:#2A2220;stroke-width:4.09;stroke-linecap:round;stroke-linejoin:round;stroke-miterlimit:10;" d="
			M-271.014,726.952V594.846h8.429v61.381c5.678-11.36,16.671-19.24,32.247-19.24c23.637,0,33.348,14.659,33.348,36.646v53.502
			h-8.429v-51.853c0-23.269-10.444-30.598-25.468-30.598c-21.072,0-31.698,16.124-31.698,34.63v47.639H-271.014z"/>
		<path style="fill:#ADE8F9;" d="M-173.695,717.962c0-6.232,5.196-11.427,11.428-11.427c6.232,0,11.425,5.194,11.425,11.427
			c0,6.024-5.193,11.218-11.425,11.218C-168.5,729.18-173.695,723.986-173.695,717.962z"/>
		<path style="fill:#ADE8F9;" d="M-953.54,604.661c0-6.232,5.196-11.427,11.428-11.427c6.232,0,11.425,5.194,11.425,11.427
			c0,6.024-5.193,11.218-11.425,11.218C-948.344,615.879-953.54,610.685-953.54,604.661z"/>
	</g>
	<g id="ily-wordmark-white_x2B_blue-rect">
		
			<path style="fill:#FFFFFF;stroke:#FFFFFF;stroke-width:4.09;stroke-linecap:round;stroke-linejoin:round;stroke-miterlimit:10;" d="
			M-950.008,604.878c0-4.214,3.481-7.878,7.695-7.878c4.032,0,7.696,3.664,7.696,7.878c0,4.031-3.664,7.512-7.696,7.512
			C-946.527,612.39-950.008,608.908-950.008,604.878z M-946.527,639.324h8.428v87.948h-8.428V639.324z"/>
		
			<path style="fill:#FFFFFF;stroke:#FFFFFF;stroke-width:4.09;stroke-linecap:round;stroke-linejoin:round;stroke-miterlimit:10;" d="
			M-909.52,727.273V594.984h8.429v132.288H-909.52z"/>
		
			<path style="fill:#FFFFFF;stroke:#FFFFFF;stroke-width:4.09;stroke-linecap:round;stroke-linejoin:round;stroke-miterlimit:10;" d="
			M-835.501,637.125c25.103,0,43.608,19.606,43.608,46.173c0,26.568-18.505,46.174-43.608,46.174
			c-25.102,0-43.607-19.606-43.607-46.174C-879.108,656.731-860.602,637.125-835.501,637.125z M-835.501,721.776
			c20.522,0,34.997-15.941,34.997-38.478c0-22.536-14.475-38.477-34.997-38.477c-20.521,0-34.995,15.941-34.995,38.477
			C-870.496,705.835-856.021,721.776-835.501,721.776z"/>
		
			<path style="fill:#FFFFFF;stroke:#FFFFFF;stroke-width:4.09;stroke-linecap:round;stroke-linejoin:round;stroke-miterlimit:10;" d="
			M-786.402,639.324h8.978l26.201,63.946c1.831,4.58,3.664,9.161,5.679,15.391c1.833-6.23,3.665-10.444,5.681-15.391l26.201-63.946
			h8.794l-36.462,87.948h-8.612L-786.402,639.324z"/>
		
			<path style="fill:#FFFFFF;stroke:#FFFFFF;stroke-width:4.09;stroke-linecap:round;stroke-linejoin:round;stroke-miterlimit:10;" d="
			M-699.376,683.482c0-27.483,16.673-46.357,41.225-46.357c22.904,0,38.661,16.491,38.661,40.493v5.863h-71.458
			c0.733,24.002,13.193,38.294,33.897,38.294c15.574,0,25.468-6.779,28.95-19.789h8.612c-5.13,18.14-17.772,27.485-37.561,27.485
			C-682.519,729.472-699.376,711.149-699.376,683.482z M-690.764,676.519h62.663c0-19.056-11.909-31.698-30.049-31.698
			C-676.107,644.821-688.749,657.28-690.764,676.519z"/>
		
			<path style="fill:#FFFFFF;stroke:#FFFFFF;stroke-width:4.09;stroke-linecap:round;stroke-linejoin:round;stroke-miterlimit:10;" d="
			M-609.605,757.688h8.245c7.147,0,15.941,0,20.522-12.46l4.397-11.91l-35.729-93.994h8.794l30.965,82.452l29.683-82.452h8.612
			l-39.026,108.286c-4.581,12.642-12.643,17.956-24.552,17.956c-4.764,0-8.245-0.367-11.91-1.1V757.688z"/>
		
			<path style="fill:#FFFFFF;stroke:#FFFFFF;stroke-width:4.09;stroke-linecap:round;stroke-linejoin:round;stroke-miterlimit:10;" d="
			M-484.101,637.125c25.103,0,43.608,19.606,43.608,46.173c0,26.568-18.505,46.174-43.608,46.174
			c-25.102,0-43.607-19.606-43.607-46.174C-527.708,656.731-509.203,637.125-484.101,637.125z M-484.101,721.776
			c20.522,0,34.997-15.941,34.997-38.478c0-22.536-14.475-38.477-34.997-38.477c-20.521,0-34.995,15.941-34.995,38.477
			C-519.097,705.835-504.622,721.776-484.101,721.776z"/>
		
			<path style="fill:#FFFFFF;stroke:#FFFFFF;stroke-width:4.09;stroke-linecap:round;stroke-linejoin:round;stroke-miterlimit:10;" d="
			M-350.353,639.324v87.948h-6.78l-1.649-16.307c-4.764,10.993-17.223,18.507-31.882,18.507c-21.071,0-31.881-14.475-31.881-35.912
			v-54.418h8.612v52.219c0,22.537,10.627,30.416,25.286,30.416c18.505,0,29.865-12.826,29.865-35.546v-46.906H-350.353z"/>
		
			<path style="fill:#FFFFFF;stroke:#FFFFFF;stroke-width:4.09;stroke-linecap:round;stroke-linejoin:round;stroke-miterlimit:10;" d="
			M-315.001,727.273v-80.619h-17.772v-7.329h17.772v-27.85h8.429v27.85h17.772v7.329h-17.772v80.619H-315.001z"/>
		
			<path style="fill:#FFFFFF;stroke:#FFFFFF;stroke-width:4.09;stroke-linecap:round;stroke-linejoin:round;stroke-miterlimit:10;" d="
			M-271.214,727.09V594.984h8.429v61.381c5.678-11.36,16.671-19.24,32.247-19.24c23.637,0,33.348,14.659,33.348,36.645v53.502
			h-8.429v-51.853c0-23.269-10.444-30.598-25.468-30.598c-21.072,0-31.698,16.124-31.698,34.63v47.639H-271.214z"/>
		<path style="fill:#ADE8F9;" d="M-173.895,718.099c0-6.232,5.196-11.427,11.428-11.427s11.425,5.194,11.425,11.427
			c0,6.024-5.193,11.218-11.425,11.218S-173.895,724.123-173.895,718.099z"/>
		<path style="fill:#ADE8F9;" d="M-953.74,604.799c0-6.232,5.196-11.427,11.428-11.427c6.232,0,11.425,5.194,11.425,11.427
			c0,6.024-5.193,11.218-11.425,11.218C-948.544,616.017-953.74,610.823-953.74,604.799z"/>
	</g>
	<g id="ily-wordmark-dark-square">
		
			<path style="fill:#2A2220;stroke:#2A2220;stroke-width:4.09;stroke-linecap:round;stroke-linejoin:round;stroke-miterlimit:10;" d="
			M-2085.809,161.407c0-4.214,3.481-7.879,7.695-7.879c4.032,0,7.696,3.664,7.696,7.879c0,4.031-3.664,7.512-7.696,7.512
			C-2082.327,168.919-2085.809,165.438-2085.809,161.407z M-2082.327,195.853h8.428v87.948h-8.428V195.853z"/>
		
			<path style="fill:#2A2220;stroke:#2A2220;stroke-width:4.09;stroke-linecap:round;stroke-linejoin:round;stroke-miterlimit:10;" d="
			M-2045.32,283.802V151.513h8.429v132.288H-2045.32z"/>
		
			<path style="fill:#2A2220;stroke:#2A2220;stroke-width:4.09;stroke-linecap:round;stroke-linejoin:round;stroke-miterlimit:10;" d="
			M-1971.301,193.654c25.103,0,43.608,19.606,43.608,46.173c0,26.568-18.505,46.174-43.608,46.174
			c-25.102,0-43.607-19.606-43.607-46.174C-2014.908,213.26-1996.403,193.654-1971.301,193.654z M-1971.301,278.305
			c20.522,0,34.997-15.941,34.997-38.478c0-22.536-14.475-38.477-34.997-38.477c-20.521,0-34.995,15.941-34.995,38.477
			C-2006.297,262.364-1991.822,278.305-1971.301,278.305z"/>
		
			<path style="fill:#2A2220;stroke:#2A2220;stroke-width:4.09;stroke-linecap:round;stroke-linejoin:round;stroke-miterlimit:10;" d="
			M-1922.202,195.853h8.978l26.201,63.946c1.831,4.58,3.664,9.161,5.679,15.391c1.833-6.23,3.665-10.444,5.681-15.391l26.201-63.946
			h8.794l-36.462,87.948h-8.612L-1922.202,195.853z"/>
		
			<path style="fill:#2A2220;stroke:#2A2220;stroke-width:4.09;stroke-linecap:round;stroke-linejoin:round;stroke-miterlimit:10;" d="
			M-1835.176,240.011c0-27.483,16.673-46.357,41.225-46.357c22.904,0,38.661,16.491,38.661,40.493v5.863h-71.458
			c0.733,24.002,13.193,38.294,33.897,38.294c15.574,0,25.468-6.779,28.95-19.789h8.612c-5.13,18.14-17.772,27.485-37.561,27.485
			C-1818.319,286.001-1835.176,267.678-1835.176,240.011z M-1826.564,233.048h62.663c0-19.056-11.909-31.698-30.049-31.698
			C-1811.907,201.35-1824.549,213.809-1826.564,233.048z"/>
		
			<path style="fill:#2A2220;stroke:#2A2220;stroke-width:4.09;stroke-linecap:round;stroke-linejoin:round;stroke-miterlimit:10;" d="
			M-1745.405,314.217h8.245c7.147,0,15.941,0,20.522-12.46l4.397-11.91l-35.729-93.994h8.794l30.965,82.452l29.683-82.452h8.612
			l-39.026,108.286c-4.581,12.642-12.643,17.956-24.552,17.956c-4.764,0-8.245-0.367-11.91-1.1V314.217z"/>
		
			<path style="fill:#2A2220;stroke:#2A2220;stroke-width:4.09;stroke-linecap:round;stroke-linejoin:round;stroke-miterlimit:10;" d="
			M-1619.902,193.654c25.103,0,43.608,19.606,43.608,46.173c0,26.568-18.505,46.174-43.608,46.174
			c-25.102,0-43.607-19.606-43.607-46.174C-1663.509,213.26-1645.003,193.654-1619.902,193.654z M-1619.902,278.305
			c20.522,0,34.997-15.941,34.997-38.478c0-22.536-14.475-38.477-34.997-38.477c-20.521,0-34.995,15.941-34.995,38.477
			C-1654.897,262.364-1640.422,278.305-1619.902,278.305z"/>
		
			<path style="fill:#2A2220;stroke:#2A2220;stroke-width:4.09;stroke-linecap:round;stroke-linejoin:round;stroke-miterlimit:10;" d="
			M-1486.153,195.853v87.948h-6.78l-1.649-16.307c-4.764,10.993-17.223,18.507-31.882,18.507c-21.071,0-31.88-14.475-31.88-35.912
			v-54.418h8.612v52.219c0,22.537,10.627,30.416,25.286,30.416c18.505,0,29.865-12.826,29.865-35.546v-46.906H-1486.153z"/>
		
			<path style="fill:#2A2220;stroke:#2A2220;stroke-width:4.09;stroke-linecap:round;stroke-linejoin:round;stroke-miterlimit:10;" d="
			M-1450.801,283.802v-80.619h-17.772v-7.329h17.772v-27.85h8.429v27.85h17.772v7.329h-17.772v80.619H-1450.801z"/>
		
			<path style="fill:#2A2220;stroke:#2A2220;stroke-width:4.09;stroke-linecap:round;stroke-linejoin:round;stroke-miterlimit:10;" d="
			M-1407.014,283.619V151.513h8.429v61.381c5.678-11.36,16.672-19.24,32.247-19.24c23.637,0,33.348,14.659,33.348,36.645v53.502
			h-8.429v-51.853c0-23.269-10.444-30.598-25.468-30.598c-21.072,0-31.698,16.124-31.698,34.63v47.639H-1407.014z"/>
		<path style="fill:#2A2220;" d="M-1309.695,274.628c0-6.232,5.196-11.427,11.428-11.427c6.232,0,11.425,5.194,11.425,11.427
			c0,6.024-5.193,11.218-11.425,11.218C-1304.5,285.847-1309.695,280.652-1309.695,274.628z"/>
		<path style="fill:#2A2220;" d="M-2089.54,161.328c0-6.232,5.196-11.427,11.428-11.427c6.232,0,11.425,5.194,11.425,11.427
			c0,6.024-5.193,11.218-11.425,11.218C-2084.344,172.546-2089.54,167.352-2089.54,161.328z"/>
	</g>
	<g id="ily-wordmark-white-square">
		
			<path style="fill:#FFFFFF;stroke:#FFFFFF;stroke-width:4.09;stroke-linecap:round;stroke-linejoin:round;stroke-miterlimit:10;" d="
			M-2085.809,161.407c0-4.214,3.481-7.879,7.695-7.879c4.032,0,7.696,3.664,7.696,7.879c0,4.031-3.664,7.512-7.696,7.512
			C-2082.327,168.919-2085.809,165.438-2085.809,161.407z M-2082.327,195.853h8.428v87.948h-8.428V195.853z"/>
		
			<path style="fill:#FFFFFF;stroke:#FFFFFF;stroke-width:4.09;stroke-linecap:round;stroke-linejoin:round;stroke-miterlimit:10;" d="
			M-2045.32,283.802V151.513h8.429v132.288H-2045.32z"/>
		
			<path style="fill:#FFFFFF;stroke:#FFFFFF;stroke-width:4.09;stroke-linecap:round;stroke-linejoin:round;stroke-miterlimit:10;" d="
			M-1971.301,193.654c25.103,0,43.608,19.606,43.608,46.173c0,26.568-18.505,46.174-43.608,46.174
			c-25.102,0-43.607-19.606-43.607-46.174C-2014.908,213.26-1996.403,193.654-1971.301,193.654z M-1971.301,278.305
			c20.522,0,34.997-15.941,34.997-38.478c0-22.536-14.475-38.477-34.997-38.477c-20.521,0-34.995,15.941-34.995,38.477
			C-2006.297,262.364-1991.822,278.305-1971.301,278.305z"/>
		
			<path style="fill:#FFFFFF;stroke:#FFFFFF;stroke-width:4.09;stroke-linecap:round;stroke-linejoin:round;stroke-miterlimit:10;" d="
			M-1922.202,195.853h8.978l26.201,63.946c1.831,4.58,3.664,9.161,5.679,15.391c1.833-6.23,3.665-10.444,5.681-15.391l26.201-63.946
			h8.794l-36.462,87.948h-8.612L-1922.202,195.853z"/>
		
			<path style="fill:#FFFFFF;stroke:#FFFFFF;stroke-width:4.09;stroke-linecap:round;stroke-linejoin:round;stroke-miterlimit:10;" d="
			M-1835.176,240.011c0-27.483,16.673-46.357,41.225-46.357c22.904,0,38.661,16.491,38.661,40.493v5.863h-71.458
			c0.733,24.002,13.193,38.294,33.897,38.294c15.574,0,25.468-6.779,28.95-19.789h8.612c-5.13,18.14-17.772,27.485-37.561,27.485
			C-1818.319,286.001-1835.176,267.678-1835.176,240.011z M-1826.564,233.048h62.663c0-19.056-11.909-31.698-30.049-31.698
			C-1811.907,201.35-1824.549,213.809-1826.564,233.048z"/>
		
			<path style="fill:#FFFFFF;stroke:#FFFFFF;stroke-width:4.09;stroke-linecap:round;stroke-linejoin:round;stroke-miterlimit:10;" d="
			M-1745.405,314.217h8.245c7.147,0,15.941,0,20.522-12.46l4.397-11.91l-35.729-93.994h8.794l30.965,82.452l29.683-82.452h8.612
			l-39.026,108.286c-4.581,12.642-12.643,17.956-24.552,17.956c-4.764,0-8.245-0.367-11.91-1.1V314.217z"/>
		
			<path style="fill:#FFFFFF;stroke:#FFFFFF;stroke-width:4.09;stroke-linecap:round;stroke-linejoin:round;stroke-miterlimit:10;" d="
			M-1619.902,193.654c25.103,0,43.608,19.606,43.608,46.173c0,26.568-18.505,46.174-43.608,46.174
			c-25.102,0-43.607-19.606-43.607-46.174C-1663.509,213.26-1645.003,193.654-1619.902,193.654z M-1619.902,278.305
			c20.522,0,34.997-15.941,34.997-38.478c0-22.536-14.475-38.477-34.997-38.477c-20.521,0-34.995,15.941-34.995,38.477
			C-1654.897,262.364-1640.422,278.305-1619.902,278.305z"/>
		
			<path style="fill:#FFFFFF;stroke:#FFFFFF;stroke-width:4.09;stroke-linecap:round;stroke-linejoin:round;stroke-miterlimit:10;" d="
			M-1486.153,195.853v87.948h-6.78l-1.649-16.307c-4.764,10.993-17.223,18.507-31.882,18.507c-21.071,0-31.88-14.475-31.88-35.912
			v-54.418h8.612v52.219c0,22.537,10.627,30.416,25.286,30.416c18.505,0,29.865-12.826,29.865-35.546v-46.906H-1486.153z"/>
		
			<path style="fill:#FFFFFF;stroke:#FFFFFF;stroke-width:4.09;stroke-linecap:round;stroke-linejoin:round;stroke-miterlimit:10;" d="
			M-1450.801,283.802v-80.619h-17.772v-7.329h17.772v-27.85h8.429v27.85h17.772v7.329h-17.772v80.619H-1450.801z"/>
		
			<path style="fill:#FFFFFF;stroke:#FFFFFF;stroke-width:4.09;stroke-linecap:round;stroke-linejoin:round;stroke-miterlimit:10;" d="
			M-1407.014,283.619V151.513h8.429v61.381c5.678-11.36,16.672-19.24,32.247-19.24c23.637,0,33.348,14.659,33.348,36.645v53.502
			h-8.429v-51.853c0-23.269-10.444-30.598-25.468-30.598c-21.072,0-31.698,16.124-31.698,34.63v47.639H-1407.014z"/>
		<path style="fill:#FFFFFF;" d="M-1309.695,274.628c0-6.232,5.196-11.427,11.428-11.427c6.232,0,11.425,5.194,11.425,11.427
			c0,6.024-5.193,11.218-11.425,11.218C-1304.5,285.847-1309.695,280.652-1309.695,274.628z"/>
		<path style="fill:#FFFFFF;" d="M-2089.54,161.328c0-6.232,5.196-11.427,11.428-11.427c6.232,0,11.425,5.194,11.425,11.427
			c0,6.024-5.193,11.218-11.425,11.218C-2084.344,172.546-2089.54,167.352-2089.54,161.328z"/>
	</g>
	<g id="ily-wordmark-dark-rect">
		
			<path style="fill:#2A2220;stroke:#2A2220;stroke-width:4.09;stroke-linecap:round;stroke-linejoin:round;stroke-miterlimit:10;" d="
			M-955.142,161.407c0-4.214,3.481-7.879,7.695-7.879c4.032,0,7.696,3.664,7.696,7.879c0,4.031-3.664,7.512-7.696,7.512
			C-951.66,168.919-955.142,165.438-955.142,161.407z M-951.66,195.853h8.428v87.948h-8.428V195.853z"/>
		
			<path style="fill:#2A2220;stroke:#2A2220;stroke-width:4.09;stroke-linecap:round;stroke-linejoin:round;stroke-miterlimit:10;" d="
			M-914.653,283.802V151.513h8.429v132.288H-914.653z"/>
		
			<path style="fill:#2A2220;stroke:#2A2220;stroke-width:4.09;stroke-linecap:round;stroke-linejoin:round;stroke-miterlimit:10;" d="
			M-840.634,193.654c25.103,0,43.608,19.606,43.608,46.173c0,26.568-18.505,46.174-43.608,46.174
			c-25.102,0-43.607-19.606-43.607-46.174C-884.242,213.26-865.736,193.654-840.634,193.654z M-840.634,278.305
			c20.522,0,34.997-15.941,34.997-38.478c0-22.536-14.475-38.477-34.997-38.477c-20.521,0-34.995,15.941-34.995,38.477
			C-875.63,262.364-861.155,278.305-840.634,278.305z"/>
		
			<path style="fill:#2A2220;stroke:#2A2220;stroke-width:4.09;stroke-linecap:round;stroke-linejoin:round;stroke-miterlimit:10;" d="
			M-791.536,195.853h8.978l26.201,63.946c1.831,4.58,3.664,9.161,5.679,15.391c1.833-6.23,3.665-10.444,5.681-15.391l26.201-63.946
			h8.794l-36.462,87.948h-8.612L-791.536,195.853z"/>
		
			<path style="fill:#2A2220;stroke:#2A2220;stroke-width:4.09;stroke-linecap:round;stroke-linejoin:round;stroke-miterlimit:10;" d="
			M-704.509,240.011c0-27.483,16.673-46.357,41.225-46.357c22.904,0,38.661,16.491,38.661,40.493v5.863h-71.458
			c0.733,24.002,13.193,38.294,33.897,38.294c15.574,0,25.468-6.779,28.95-19.789h8.612c-5.13,18.14-17.772,27.485-37.561,27.485
			C-687.653,286.001-704.509,267.678-704.509,240.011z M-695.898,233.048h62.663c0-19.056-11.909-31.698-30.049-31.698
			C-681.24,201.35-693.882,213.809-695.898,233.048z"/>
		
			<path style="fill:#2A2220;stroke:#2A2220;stroke-width:4.09;stroke-linecap:round;stroke-linejoin:round;stroke-miterlimit:10;" d="
			M-614.738,314.217h8.245c7.147,0,15.941,0,20.522-12.46l4.397-11.91l-35.729-93.994h8.794l30.965,82.452l29.683-82.452h8.612
			l-39.026,108.286c-4.581,12.642-12.643,17.956-24.552,17.956c-4.764,0-8.245-0.367-11.91-1.1V314.217z"/>
		
			<path style="fill:#2A2220;stroke:#2A2220;stroke-width:4.09;stroke-linecap:round;stroke-linejoin:round;stroke-miterlimit:10;" d="
			M-489.235,193.654c25.103,0,43.608,19.606,43.608,46.173c0,26.568-18.505,46.174-43.608,46.174
			c-25.102,0-43.607-19.606-43.607-46.174C-532.842,213.26-514.337,193.654-489.235,193.654z M-489.235,278.305
			c20.522,0,34.997-15.941,34.997-38.478c0-22.536-14.475-38.477-34.997-38.477c-20.521,0-34.995,15.941-34.995,38.477
			C-524.23,262.364-509.756,278.305-489.235,278.305z"/>
		
			<path style="fill:#2A2220;stroke:#2A2220;stroke-width:4.09;stroke-linecap:round;stroke-linejoin:round;stroke-miterlimit:10;" d="
			M-355.487,195.853v87.948h-6.78l-1.649-16.307c-4.764,10.993-17.223,18.507-31.882,18.507c-21.071,0-31.881-14.475-31.881-35.912
			v-54.418h8.612v52.219c0,22.537,10.627,30.416,25.286,30.416c18.505,0,29.865-12.826,29.865-35.546v-46.906H-355.487z"/>
		
			<path style="fill:#2A2220;stroke:#2A2220;stroke-width:4.09;stroke-linecap:round;stroke-linejoin:round;stroke-miterlimit:10;" d="
			M-320.135,283.802v-80.619h-17.772v-7.329h17.772v-27.85h8.429v27.85h17.772v7.329h-17.772v80.619H-320.135z"/>
		
			<path style="fill:#2A2220;stroke:#2A2220;stroke-width:4.09;stroke-linecap:round;stroke-linejoin:round;stroke-miterlimit:10;" d="
			M-276.347,283.619V151.513h8.429v61.381c5.678-11.36,16.671-19.24,32.247-19.24c23.637,0,33.348,14.659,33.348,36.645v53.502
			h-8.429v-51.853c0-23.269-10.444-30.598-25.468-30.598c-21.072,0-31.698,16.124-31.698,34.63v47.639H-276.347z"/>
		<path style="fill:#2A2220;" d="M-179.029,274.628c0-6.232,5.196-11.427,11.428-11.427s11.425,5.194,11.425,11.427
			c0,6.024-5.193,11.218-11.425,11.218S-179.029,280.652-179.029,274.628z"/>
		<path style="fill:#2A2220;" d="M-958.873,161.328c0-6.232,5.196-11.427,11.428-11.427c6.232,0,11.425,5.194,11.425,11.427
			c0,6.024-5.193,11.218-11.425,11.218C-953.678,172.546-958.873,167.352-958.873,161.328z"/>
	</g>
	<g id="ily-wordmark-white-rect">
		
			<path style="fill:#FFFFFF;stroke:#FFFFFF;stroke-width:4.09;stroke-linecap:round;stroke-linejoin:round;stroke-miterlimit:10;" d="
			M-955.341,161.545c0-4.214,3.481-7.879,7.695-7.879c4.032,0,7.696,3.664,7.696,7.879c0,4.031-3.664,7.512-7.696,7.512
			C-951.86,169.057-955.341,165.575-955.341,161.545z M-951.86,195.991h8.428v87.948h-8.428V195.991z"/>
		
			<path style="fill:#FFFFFF;stroke:#FFFFFF;stroke-width:4.09;stroke-linecap:round;stroke-linejoin:round;stroke-miterlimit:10;" d="
			M-914.853,283.939V151.651h8.429v132.288H-914.853z"/>
		
			<path style="fill:#FFFFFF;stroke:#FFFFFF;stroke-width:4.09;stroke-linecap:round;stroke-linejoin:round;stroke-miterlimit:10;" d="
			M-840.834,193.792c25.103,0,43.608,19.606,43.608,46.173c0,26.568-18.505,46.174-43.608,46.174
			c-25.102,0-43.607-19.606-43.607-46.174C-884.441,213.398-865.936,193.792-840.834,193.792z M-840.834,278.442
			c20.522,0,34.997-15.941,34.997-38.478c0-22.536-14.475-38.477-34.997-38.477c-20.521,0-34.995,15.941-34.995,38.477
			C-875.83,262.502-861.355,278.442-840.834,278.442z"/>
		
			<path style="fill:#FFFFFF;stroke:#FFFFFF;stroke-width:4.09;stroke-linecap:round;stroke-linejoin:round;stroke-miterlimit:10;" d="
			M-791.735,195.991h8.978l26.201,63.946c1.831,4.58,3.664,9.161,5.679,15.391c1.833-6.23,3.665-10.444,5.681-15.391l26.201-63.946
			h8.794l-36.462,87.948h-8.612L-791.735,195.991z"/>
		
			<path style="fill:#FFFFFF;stroke:#FFFFFF;stroke-width:4.09;stroke-linecap:round;stroke-linejoin:round;stroke-miterlimit:10;" d="
			M-704.709,240.148c0-27.483,16.673-46.357,41.225-46.357c22.904,0,38.661,16.491,38.661,40.493v5.863h-71.458
			c0.733,24.002,13.193,38.294,33.897,38.294c15.574,0,25.468-6.779,28.95-19.789h8.612c-5.13,18.14-17.772,27.485-37.561,27.485
			C-687.852,286.138-704.709,267.816-704.709,240.148z M-696.097,233.185h62.663c0-19.056-11.909-31.698-30.049-31.698
			C-681.44,201.488-694.082,213.947-696.097,233.185z"/>
		
			<path style="fill:#FFFFFF;stroke:#FFFFFF;stroke-width:4.09;stroke-linecap:round;stroke-linejoin:round;stroke-miterlimit:10;" d="
			M-614.938,314.355h8.245c7.147,0,15.941,0,20.522-12.46l4.397-11.91l-35.729-93.994h8.794l30.965,82.452l29.683-82.452h8.612
			l-39.026,108.286c-4.581,12.642-12.643,17.956-24.552,17.956c-4.764,0-8.245-0.367-11.91-1.1V314.355z"/>
		
			<path style="fill:#FFFFFF;stroke:#FFFFFF;stroke-width:4.09;stroke-linecap:round;stroke-linejoin:round;stroke-miterlimit:10;" d="
			M-489.435,193.792c25.103,0,43.608,19.606,43.608,46.173c0,26.568-18.505,46.174-43.608,46.174
			c-25.102,0-43.607-19.606-43.607-46.174C-533.042,213.398-514.536,193.792-489.435,193.792z M-489.435,278.442
			c20.522,0,34.997-15.941,34.997-38.478c0-22.536-14.475-38.477-34.997-38.477c-20.521,0-34.995,15.941-34.995,38.477
			C-524.43,262.502-509.955,278.442-489.435,278.442z"/>
		
			<path style="fill:#FFFFFF;stroke:#FFFFFF;stroke-width:4.09;stroke-linecap:round;stroke-linejoin:round;stroke-miterlimit:10;" d="
			M-355.686,195.991v87.948h-6.78l-1.649-16.307c-4.764,10.993-17.223,18.507-31.882,18.507c-21.071,0-31.881-14.475-31.881-35.912
			v-54.418h8.612v52.219c0,22.537,10.627,30.416,25.286,30.416c18.505,0,29.865-12.826,29.865-35.546v-46.906H-355.686z"/>
		
			<path style="fill:#FFFFFF;stroke:#FFFFFF;stroke-width:4.09;stroke-linecap:round;stroke-linejoin:round;stroke-miterlimit:10;" d="
			M-320.334,283.939V203.32h-17.772v-7.329h17.772v-27.85h8.429v27.85h17.772v7.329h-17.772v80.619H-320.334z"/>
		
			<path style="fill:#FFFFFF;stroke:#FFFFFF;stroke-width:4.09;stroke-linecap:round;stroke-linejoin:round;stroke-miterlimit:10;" d="
			M-276.547,283.757V151.651h8.429v61.381c5.678-11.36,16.671-19.24,32.247-19.24c23.637,0,33.348,14.659,33.348,36.645v53.502
			h-8.429v-51.853c0-23.269-10.444-30.598-25.468-30.598c-21.072,0-31.698,16.124-31.698,34.63v47.639H-276.547z"/>
		<path style="fill:#FFFFFF;" d="M-179.228,274.766c0-6.232,5.196-11.427,11.428-11.427s11.425,5.194,11.425,11.427
			c0,6.024-5.193,11.218-11.425,11.218S-179.228,280.79-179.228,274.766z"/>
		<path style="fill:#FFFFFF;" d="M-959.073,161.466c0-6.232,5.196-11.427,11.428-11.427s11.425,5.194,11.425,11.427
			c0,6.024-5.193,11.218-11.425,11.218S-959.073,167.49-959.073,161.466z"/>
	</g>
	<g>
	</g>
	<g>
	</g>
	<g>
	</g>
	<g>
	</g>
	<g>
	</g>
	<g>
	</g>
</g>
</svg>
