<?xml version="1.0" encoding="iso-8859-1"?>
<!-- Generator: Adobe Illustrator 30.3.0, SVG Export Plug-In . SVG Version: 9.03 Build 0)  -->
<svg version="1.1"
	 xmlns="http://www.w3.org/2000/svg" xmlns:xlink="http://www.w3.org/1999/xlink" xmlns:a="http://ns.adobe.com/AdobeSVGViewerExtensions/3.0/"
	 x="0px" y="0px" viewBox="0 0 1000 1000" style="enable-background:new 0 0 1000 1000;" xml:space="preserve">

<g id="brandmark">
	
	
	
	<g id="ily-brandmark-white-square_00000106843828137511240050000005159163055175924409_">
		
			<path style="fill:#FFFFFF;stroke:#FFFFFF;stroke-width:30.5;stroke-linecap:round;stroke-linejoin:round;stroke-miterlimit:10;" d="
			M196.435,228.439c0-15.178,12.539-28.377,27.717-28.377c14.518,0,27.717,13.199,27.717,28.377
			c0,14.518-13.199,27.057-27.717,27.057C208.974,255.496,196.435,242.957,196.435,228.439z M208.974,352.506h30.357v316.766
			h-30.357V352.506z"/>
		
			<path style="fill:#FFFFFF;stroke:#FFFFFF;stroke-width:30.5;stroke-linecap:round;stroke-linejoin:round;stroke-miterlimit:10;" d="
			M355.477,669.272V192.803h30.357v476.469H355.477z"/>
		
			<path style="fill:#FFFFFF;stroke:#FFFFFF;stroke-width:30.5;stroke-linecap:round;stroke-linejoin:round;stroke-miterlimit:10;" d="
			M467.661,778.82h29.697c25.737,0,57.414,0,73.912-44.875l15.838-42.895L458.422,352.506h31.677l111.528,296.968l106.909-296.968
			h31.017L598.987,742.524c-16.498,45.535-45.535,64.673-88.431,64.673c-17.158,0-29.697-1.32-42.895-3.96V778.82z"/>
		<path style="fill:#FFFFFF;" d="M729.12,638.644c0-25.488,21.24-46.728,46.728-46.728s46.728,21.24,46.728,46.728
			c0,24.638-21.24,45.878-46.728,45.878S729.12,663.282,729.12,638.644z"/>
		<path style="fill:#FFFFFF;" d="M177.424,228.204c0-25.488,21.24-46.728,46.728-46.728s46.728,21.24,46.728,46.728
			c0,24.638-21.24,45.878-46.728,45.878S177.424,252.842,177.424,228.204z"/>
	</g>
</g>

<g id="wordmark">
	
	
	
	
	
	
	
	
	<g>
	</g>
	<g>
	</g>
	<g>
	</g>
	<g>
	</g>
	<g>
	</g>
	<g>
	</g>
</g>
</svg>
